<?xml version="1.0" encoding="UTF-8"?>
<svg width="629px" height="202px" viewBox="0 0 629 202" version="1.1" xmlns="http://www.w3.org/2000/svg" xmlns:xlink="http://www.w3.org/1999/xlink">
    <title>HS_main logo color</title>
    <defs>
        <polygon id="path-1" points="0 0 94.2988 0 94.2988 201.3816 0 201.3816"></polygon>
        <path d="M15.78575,0 L29.98375,14.199 L30.1600227,14.3835329 C32.0990218,16.5100408 32.0402643,19.8074857 29.98375,21.864 L15.78575,36.062 L1.58775,21.864 L1.41147735,21.6793838 C-0.527521837,19.55196 -0.468764286,16.2545429 1.58775,14.199 L15.78575,0 Z" id="path-3"></path>
    </defs>
    <g id="HS_main-logo-color" stroke="none" stroke-width="1" fill="none" fill-rule="evenodd">
        <path d="M0,31.835 L0,132.513 C0,144.613 6.859,155.667 17.701,161.039 L94.299,201.382 L172.082,161.334 C182.268,155.743 188.598,145.047 188.598,133.427 L188.598,31.835 C188.598,14.253 174.345,0 156.763,0 L31.835,0 C14.253,0 0,14.253 0,31.835" id="Fill-15" fill="#FF007A"></path>
        <g id="Group-19" transform="translate(0.000200, 0.000000)">
            <mask id="mask-2" fill="white">
                <use xlink:href="#path-1"></use>
            </mask>
            <g id="Clip-18"></g>
            <path d="M31.835,-0.0004 L94.299,-0.0004 L94.299,201.3816 L16.516,161.3346 C6.33,155.7436 0,145.0466 0,133.4266 L0,31.8346 C0,14.2526 14.253,-0.0004 31.835,-0.0004" id="Fill-17" fill-opacity="0.22" fill="#000000" mask="url(#mask-2)"></path>
        </g>
        <path d="M275.3524,114.4041 C275.3524,123.1541 272.0994,129.9811 265.5994,134.8851 C259.0964,139.7881 249.5214,142.2441 236.8734,142.2441 C231.9084,142.2441 227.3864,141.8891 223.3074,141.1801 C219.2294,140.4711 215.7104,139.4071 212.7574,137.9881 C209.8004,136.5691 207.4954,134.7961 205.8414,132.6681 C204.1844,130.5401 203.3584,128.0581 203.3584,125.2211 C203.3584,122.6221 203.8904,120.4061 204.9544,118.5711 C206.0184,116.7401 207.3754,115.2331 209.0334,114.0491 C212.4604,116.0611 216.3614,117.8351 220.7364,119.3691 C225.1084,120.9071 230.1924,121.6741 235.9864,121.6741 C244.3784,121.6741 248.5764,119.3111 248.5764,114.5811 C248.5764,112.5731 247.8364,111.0351 246.3604,109.9711 C244.8794,108.9071 242.3704,107.9621 238.8234,107.1341 L231.7304,105.5381 C222.0354,103.5291 214.8234,100.4261 210.0974,96.2281 C205.3674,92.0341 203.0044,86.1521 203.0044,78.5851 C203.0044,70.1921 206.4004,63.5431 213.2004,58.6361 C219.9964,53.7321 229.1284,51.2771 240.5974,51.2771 C244.8524,51.2771 248.8694,51.6041 252.6554,52.2521 C256.4364,52.9031 259.6864,53.8791 262.4074,55.1781 C265.1254,56.4811 267.2844,58.1041 268.8804,60.0541 C270.4764,62.0051 271.2744,64.2831 271.2744,66.8811 C271.2744,69.2481 270.7994,71.3451 269.8554,73.1761 C268.9074,75.0111 267.6654,76.5181 266.1314,77.6981 C265.1834,77.1081 263.7954,76.4571 261.9644,75.7471 C260.1294,75.0381 258.1524,74.3901 256.0244,73.7971 C253.8964,73.2071 251.6484,72.7331 249.2854,72.3781 C246.9194,72.0241 244.7334,71.8461 242.7244,71.8461 C238.5844,71.8461 235.3654,72.4091 233.0604,73.5311 C230.7554,74.6561 229.6024,76.3411 229.6024,78.5851 C229.6024,80.2421 230.2504,81.5411 231.5534,82.4861 C232.8524,83.4341 235.2154,84.3211 238.6464,85.1461 L245.3844,86.7411 C256.1394,89.1081 263.8264,92.5351 268.4364,97.0261 C273.0474,101.5211 275.3524,107.3111 275.3524,114.4041" id="Fill-20" fill="#5F00BD"></path>
        <path d="M338.6522,72.9102 C332.2682,72.9102 326.8292,74.9492 322.3382,79.0282 C317.8442,83.1062 315.6002,89.1082 315.6002,97.0262 C315.6002,104.9482 317.7552,110.8572 322.0722,114.7582 C326.3862,118.6602 331.8522,120.6102 338.4752,120.6102 C342.256,120.6102 345.595,120.1092 348.493,119.1032 C351.389,118.1012 353.84,117.0642 355.852,116.0002 C357.861,117.5382 359.426,119.1642 360.551,120.8762 C361.673,122.5922 362.236,124.6892 362.236,127.1712 C362.236,131.6662 359.869,135.2702 355.143,137.9882 C350.413,140.7062 343.852,142.0662 335.4602,142.0662 C328.3672,142.0662 321.8952,141.1182 316.0432,139.2292 C310.1912,137.3402 305.1962,134.5032 301.0592,130.7182 C296.9192,126.9362 293.7272,122.2372 291.4842,116.6202 C289.2362,111.0082 288.1152,104.4742 288.1152,97.0262 C288.1152,89.3432 289.3562,82.6632 291.8382,76.9882 C294.3212,71.3142 297.6902,66.5882 301.9462,62.8032 C306.2022,59.0212 311.1672,56.1842 316.8412,54.2912 C322.5162,52.4022 328.4832,51.4542 334.7512,51.4542 C342.908,51.4542 349.319,52.9342 353.991,55.8872 C358.659,58.8442 360.995,62.5672 360.995,67.0582 C360.995,69.1862 360.49,71.1372 359.488,72.9102 C358.481,74.6832 357.271,76.2212 355.852,77.5202 C353.725,76.3412 351.211,75.2772 348.316,74.3292 C345.417,73.3842 342.1982,72.9102 338.6522,72.9102" id="Fill-22" fill="#5F00BD"></path>
        <path d="M417.385,72.7329 C411.826,72.7329 407.513,74.8029 404.44,78.9389 C401.364,83.0789 399.83,88.9889 399.83,96.6719 C399.83,104.5929 401.337,110.5919 404.352,114.6699 C407.366,118.7489 411.711,120.7879 417.385,120.7879 C423.059,120.7879 427.404,118.7209 430.418,114.5809 C433.433,110.4449 434.94,104.4739 434.94,96.6719 C434.94,89.1079 433.402,83.2259 430.33,79.0279 C427.254,74.8339 422.94,72.7329 417.385,72.7329 M462.603,96.6719 C462.603,103.6489 461.539,109.9439 459.411,115.5569 C457.283,121.1729 454.238,125.9299 450.279,129.8309 C446.316,133.7319 441.559,136.7469 436.004,138.8749 C430.445,141.0029 424.239,142.0669 417.385,142.0669 C410.527,142.0669 404.29,141.0299 398.677,138.9629 C393.061,136.8969 388.273,133.9099 384.314,130.0089 C380.351,126.1079 377.31,121.3509 375.182,115.7339 C373.054,110.1209 371.99,103.7649 371.99,96.6719 C371.99,89.8179 373.081,83.5809 375.271,77.9639 C377.456,72.3509 380.529,67.5909 384.491,63.6889 C388.45,59.7879 393.238,56.7739 398.855,54.6459 C404.468,52.5179 410.647,51.4539 417.385,51.4539 C424.123,51.4539 430.268,52.5179 435.827,54.6459 C441.382,56.7739 446.139,59.8189 450.101,63.7779 C454.06,67.7409 457.133,72.4979 459.322,78.0529 C461.508,83.6109 462.603,89.8179 462.603,96.6719" id="Fill-23" fill="#5F00BD"></path>
        <path d="M505.867,140.7743 C504.684,141.1293 503.03,141.4523 500.902,141.7493 C498.774,142.0423 496.407,142.1933 493.809,142.1933 C488.489,142.1933 484.646,141.3333 482.283,139.6213 C479.916,137.9103 478.737,134.5683 478.737,129.6033 L478.737,75.5193 C478.737,72.2113 479.562,69.3743 481.219,67.0073 C482.873,64.6443 485.178,62.5743 488.135,60.8013 C492.036,58.4383 496.735,56.5763 502.232,55.2153 C507.729,53.8583 513.492,53.1763 519.521,53.1763 C531.814,53.1763 537.963,57.3163 537.963,65.5893 C537.963,67.6013 537.666,69.4323 537.076,71.0863 C536.482,72.7433 535.835,74.1623 535.126,75.3413 C532.404,74.7523 529.096,74.4553 525.195,74.4553 C521.765,74.4553 518.338,74.8713 514.911,75.6963 C511.48,76.5253 508.465,77.6473 505.867,79.0653 L505.867,140.7743 Z" id="Fill-24" fill="#5F00BD"></path>
        <path d="M587.437,71.4917 C582.352,71.4917 578.127,73.0607 574.757,76.1907 C571.389,79.3247 569.408,83.8467 568.818,89.7557 L602.687,84.2587 C602.448,81.1867 601.091,78.2917 598.608,75.5697 C596.126,72.8527 592.401,71.4917 587.437,71.4917 L587.437,71.4917 Z M570.591,108.0207 C572.245,112.9857 575.14,116.5047 579.28,118.5717 C583.416,120.6417 588.204,121.6747 593.642,121.6747 C598.608,121.6747 603.276,120.9957 607.651,119.6347 C612.023,118.2777 615.57,116.7707 618.291,115.1137 C620.065,116.2967 621.541,117.8347 622.724,119.7237 C623.904,121.6167 624.497,123.6867 624.497,125.9297 C624.497,128.6517 623.669,131.0147 622.015,133.0227 C620.358,135.0357 618.083,136.7197 615.188,138.0767 C612.289,139.4337 608.862,140.4397 604.902,141.0917 C600.94,141.7387 596.596,142.0667 591.87,142.0667 C584.892,142.0667 578.45,141.0917 572.542,139.1407 C566.629,137.1907 561.548,134.2947 557.292,130.4517 C553.036,126.6127 549.694,121.7937 547.273,115.9997 C544.848,110.2097 543.638,103.4097 543.638,95.6077 C543.638,88.0447 544.848,81.4837 547.273,75.9247 C549.694,70.3697 552.947,65.7597 557.026,62.0937 C561.103,58.4317 565.773,55.7407 571.035,54.0257 C576.293,52.3137 581.7,51.4537 587.26,51.4537 C593.289,51.4537 598.813,52.3717 603.839,54.2027 C608.862,56.0377 613.176,58.6087 616.784,61.9157 C620.388,65.2277 623.195,69.1867 625.207,73.7967 C627.215,78.4077 628.222,83.4337 628.222,88.8697 C628.222,92.6547 627.215,95.4917 625.207,97.3807 C623.195,99.2737 620.358,100.5147 616.695,101.1047 L570.591,108.0207 Z" id="Fill-25" fill="#5F00BD"></path>
        <path d="M50.3831,141.8006 C48.2551,142.0936 45.8881,142.2436 43.2901,142.2436 C37.9701,142.2436 34.1271,141.3846 31.7641,139.6726 C29.3971,137.9606 28.2171,134.6186 28.2171,129.6536 L28.2171,25.5646 C29.5171,25.2096 31.2321,24.8556 33.3601,24.5006 C35.4881,24.1466 37.8511,23.9686 40.4531,23.9686 C45.7731,23.9686 49.5851,24.8556 51.8901,26.6286 C54.1951,28.4016 55.3481,31.7706 55.3481,36.7366 L55.3481,54.6966 C57.8311,53.5166 60.6371,52.5416 63.7711,51.7706 C66.9011,51.0036 70.3011,50.6186 73.9671,50.6186 C85.3161,50.6186 94.2091,53.4866 100.6541,59.2186 C107.0961,64.9546 110.3181,73.5546 110.3181,85.0186 L110.3181,140.8256 C109.1351,141.1796 107.4811,141.5036 105.3531,141.8006 C103.2261,142.0936 100.8591,142.2436 98.2601,142.2436 C92.9411,142.2436 89.0971,141.3846 86.7341,139.6726 C84.3681,137.9606 83.1881,134.6186 83.1881,129.6536 L83.1881,86.6146 C83.1881,81.2956 81.8581,77.5136 79.1981,75.2666 C76.5381,73.0226 73.1381,71.8966 69.0021,71.8966 C66.2811,71.8966 63.7981,72.2826 61.5541,73.0496 C59.3071,73.8206 57.2371,74.7346 55.3481,75.7986 L55.3481,140.8256 C54.1651,141.1796 52.5111,141.5036 50.3831,141.8006" id="Fill-26" fill="#FFFFFF"></path>
        <g id="Group-30" transform="translate(129.194250, 19.298000)">
            <mask id="mask-4" fill="white">
                <use xlink:href="#path-3"></use>
            </mask>
            <g id="Clip-29"></g>
            <polygon id="Fill-28" fill="#FFFFFF" mask="url(#mask-4)" points="-5.85125 39.669 37.42375 39.669 37.42375 -3.606 -5.85125 -3.606"></polygon>
        </g>
        <path d="M158.3721,140.8253 C157.1891,141.1803 155.5351,141.5033 153.4071,141.8003 C151.2791,142.0933 148.9121,142.2443 146.3141,142.2443 C140.9941,142.2443 137.1821,141.3843 134.8771,139.6723 C132.5711,137.9613 131.4191,134.6193 131.4191,129.6543 L131.4191,64.3393 C132.5991,63.9853 134.2561,63.6303 136.3841,63.2753 C138.5121,62.9213 140.8751,62.7433 143.4771,62.7433 C148.7971,62.7433 152.6091,63.6303 154.9141,65.4033 C157.2191,67.1763 158.3721,70.5463 158.3721,75.5113 L158.3721,140.8253 Z" id="Fill-31" fill="#FFFFFF"></path>
    </g>
</svg>